# xmcd CD database file
#
# Track frame offsets:
#	150
#	28801
#	45978
#	65555
#	90984
#	122713
#	146828
#	174675
#	204527
#	236348
#
# Disc length: 3394 seconds
#
# Revision: 2
# Processed by: cddbd v1.5.2PL0 Copyright (c) Steve Scherf et al.
# Submitted via: CDex 1.51
#
DISCID=870d400a
DTITLE=Peter O'Mara - Back Seat Driver
DYEAR=1999
DGENRE=Jazz
TTITLE0=Ismel
TTITLE1=Song for Attila
TTITLE2=Back Seat Driver
TTITLE3=Song for You
TTITLE4=All and More
TTITLE5=Black Diamond
TTITLE6=So Be It
TTITLE7=Basic
TTITLE8=Sim City
TTITLE9=Fantasy
EXTD=YEAR: 1999
EXTT0=
EXTT1=
EXTT2=
EXTT3=
EXTT4=
EXTT5=
EXTT6=
EXTT7=
EXTT8=
EXTT9=
PLAYORDER=
